<svg xmlns="http://www.w3.org/2000/svg" width="16" height="17" viewBox="0 0 16 17" fill="none">
  <path d="M13.354 6.64919L8.35403 11.6492C8.30759 11.6957 8.25245 11.7326 8.19175 11.7577C8.13105 11.7829 8.06598 11.7958 8.00028 11.7958C7.93457 11.7958 7.86951 11.7829 7.80881 11.7577C7.74811 11.7326 7.69296 11.6957 7.64653 11.6492L2.64653 6.64919C2.55271 6.55537 2.5 6.42813 2.5 6.29544C2.5 6.16276 2.55271 6.03551 2.64653 5.94169C2.74035 5.84787 2.8676 5.79517 3.00028 5.79517C3.13296 5.79517 3.26021 5.84787 3.35403 5.94169L8.00028 10.5886L12.6465 5.94169C12.693 5.89524 12.7481 5.85839 12.8088 5.83325C12.8695 5.80811 12.9346 5.79517 13.0003 5.79517C13.066 5.79517 13.131 5.80811 13.1917 5.83325C13.2524 5.85839 13.3076 5.89524 13.354 5.94169C13.4005 5.98815 13.4373 6.0433 13.4625 6.104C13.4876 6.16469 13.5006 6.22975 13.5006 6.29544C13.5006 6.36114 13.4876 6.4262 13.4625 6.48689C13.4373 6.54759 13.4005 6.60274 13.354 6.64919Z" fill="#4F320E"/>
</svg>