<svg width="24" height="25" viewBox="0 0 24 25" fill="none" xmlns="http://www.w3.org/2000/svg">
<g id="PaperPlaneTilt">
<path id="Vector" d="M21.3112 2.98417C21.1226 2.79566 20.8871 2.66085 20.629 2.59362C20.371 2.52639 20.0997 2.52917 19.843 2.60167H19.829L1.83461 8.06167C1.54248 8.14586 1.28283 8.31683 1.09007 8.55192C0.897302 8.78702 0.780525 9.07514 0.75521 9.3781C0.729895 9.68107 0.797238 9.98457 0.948314 10.2484C1.09939 10.5122 1.32707 10.7239 1.60117 10.8554L9.56242 14.7329L13.4343 22.6895C13.5547 22.9465 13.7462 23.1636 13.9861 23.3153C14.226 23.467 14.5042 23.5468 14.788 23.5454C14.8312 23.5454 14.8743 23.5435 14.9174 23.5398C15.2201 23.5153 15.5081 23.3988 15.7427 23.2059C15.9773 23.013 16.1473 22.753 16.2299 22.4607L21.6862 4.46635C21.6862 4.46167 21.6862 4.45698 21.6862 4.45229C21.7596 4.19632 21.7636 3.92541 21.6977 3.6674C21.6318 3.40938 21.4984 3.17356 21.3112 2.98417ZM14.7965 22.0314L14.7918 22.0445V22.0379L11.0362 14.3223L15.5362 9.82229C15.6709 9.68049 15.7449 9.49168 15.7424 9.29611C15.7399 9.10054 15.6611 8.91368 15.5228 8.77538C15.3845 8.63708 15.1976 8.55828 15.002 8.55577C14.8065 8.55327 14.6177 8.62726 14.4759 8.76198L9.97586 13.262L2.25742 9.50635H2.25086H2.26399L20.2499 4.04542L14.7965 22.0314Z" fill="#ffffff"/>
</g>
</svg>
