<svg width="20" height="21" viewBox="0 0 20 21" fill="none" xmlns="http://www.w3.org/2000/svg">
    <path d="M8.4375 11.8579L12.5 7.79541" stroke="#4F320E" stroke-width="1.5" stroke-linecap="round" stroke-linejoin="round"/>
    <path d="M17.4763 3.59091C17.5065 3.484 17.5076 3.37099 17.4795 3.26352C17.4514 3.15604 17.3953 3.05799 17.3167 2.97944C17.2382 2.9009 17.1401 2.84471 17.0326 2.81665C16.9252 2.7886 16.8122 2.78969 16.7052 2.81982L1.70524 7.36825C1.58278 7.40282 1.47378 7.47393 1.39282 7.5721C1.31186 7.67027 1.2628 7.79081 1.25218 7.91761C1.24156 8.04442 1.2699 8.17144 1.33341 8.2817C1.39692 8.39197 1.49258 8.48022 1.60759 8.53466L8.43806 11.8581L11.7615 18.6878C11.8159 18.8028 11.9042 18.8984 12.0145 18.962C12.1247 19.0255 12.2517 19.0538 12.3785 19.0432C12.5053 19.0326 12.6259 18.9835 12.7241 18.9025C12.8222 18.8216 12.8933 18.7126 12.9279 18.5901L17.4763 3.59091Z" stroke="#4F320E" stroke-width="1.5" stroke-linecap="round" stroke-linejoin="round"/>
</svg>
